<svg xmlns="http://www.w3.org/2000/svg"  viewBox="0 0 100 100" width="100px" height="100px"><path fill="#81d4fa" d="m50,17.85c-20.56,0-37.22,14.39-37.22,32.15,0,6.36,2.15,12.29,5.84,17.28-.89,4.25-2.63,8.18-5.04,11.57-1.09,1.53.01,3.68,1.88,3.68.02,0,.03,0,.05,0,6.51,0,12.52-1.48,17.39-3.98,5.12,2.29,10.93,3.59,17.09,3.59,20.56,0,37.22-14.39,37.22-32.15s-16.67-32.15-37.22-32.15Z"/><circle cx="61" cy="49.5" r="5.5" fill="#fff"/><circle cx="61" cy="49.5" r="2.5" fill="#4a254b"/><circle cx="39" cy="49.5" r="5.5" fill="#fff"/><circle cx="39" cy="49.5" r="2.5" fill="#4a254b"/><path fill="#4a254b" d="m50.05,63.28c-3.94,0-7.66-1.2-9.95-3.2-.42-.36-.46-1-.09-1.41.36-.42,1-.46,1.41-.09,1.94,1.69,5.16,2.71,8.63,2.71s6.6-.98,8.55-2.63c.42-.36,1.05-.3,1.41.12.36.42.31,1.05-.12,1.41-2.33,1.98-5.92,3.11-9.84,3.11Z"/><g><path fill="#4a254b" d="m39.27,61.6c-.35,0-.69-.18-.87-.51-.27-.48-.1-1.09.38-1.36.5-.28,1.17-.87,1.42-1.6.18-.52.75-.8,1.27-.62.52.18.8.75.62,1.27-.43,1.26-1.49,2.22-2.32,2.69-.16.09-.33.13-.49.13Z"/><path fill="#4a254b" d="m60.73,61.6c-.17,0-.34-.04-.49-.13-.84-.48-1.89-1.43-2.32-2.69-.18-.52.1-1.09.62-1.27.52-.18,1.09.1,1.27.62.25.73.92,1.32,1.42,1.6.48.27.65.88.38,1.36-.18.33-.52.51-.87.51Z"/></g></svg>