<svg xmlns="http://www.w3.org/2000/svg" xmlns:xlink="http://www.w3.org/1999/xlink" viewBox="0,0,256,256" width="64px" height="64px"><defs><linearGradient x1="16.009" y1="38.344" x2="16.009" y2="46.108" gradientUnits="userSpaceOnUse" id="color-1"><stop offset="0" stop-color="#ffffff"></stop><stop offset="1" stop-color="#ffe1ea"></stop></linearGradient><linearGradient x1="47.992" y1="38.344" x2="47.992" y2="46.108" gradientUnits="userSpaceOnUse" id="color-2"><stop offset="0" stop-color="#ffffff"></stop><stop offset="1" stop-color="#ffe1ea"></stop></linearGradient><linearGradient x1="32" y1="4.695" x2="32" y2="59.455" gradientUnits="userSpaceOnUse" id="color-3"><stop offset="0" stop-color="#ffe29f"></stop><stop offset="1" stop-color="#ff719a"></stop></linearGradient><linearGradient x1="21.006" y1="4.695" x2="21.006" y2="59.455" gradientUnits="userSpaceOnUse" id="color-4"><stop offset="0" stop-color="#ffe29f"></stop><stop offset="1" stop-color="#ff719a"></stop></linearGradient><linearGradient x1="42.994" y1="4.695" x2="42.994" y2="59.455" gradientUnits="userSpaceOnUse" id="color-5"><stop offset="0" stop-color="#ffe29f"></stop><stop offset="1" stop-color="#ff719a"></stop></linearGradient></defs><g fill="none" fill-rule="nonzero" stroke="none" stroke-width="1" stroke-linecap="butt" stroke-linejoin="miter" stroke-miterlimit="10" stroke-dasharray="" stroke-dashoffset="0" font-family="none" font-weight="none" font-size="none" text-anchor="none" style="mix-blend-mode: normal"><g transform="scale(4,4)"><path d="M13.011,39.545c0.588,-0.34 1.27,-0.535 1.998,-0.535c2.208,0 3.998,1.79 3.998,3.998c0,1.194 -0.524,2.266 -1.354,2.999" fill="url(#color-1)"></path><path d="M46.348,46.007c-0.831,-0.733 -1.354,-1.805 -1.354,-2.999c0,-2.208 1.79,-3.998 3.998,-3.998c0.729,0 1.412,0.195 2,0.536" fill="url(#color-2)"></path><path d="M52.375,10.101c-13.327,-5.468 -27.42,-5.468 -40.746,0l-0.629,0.254v21.659c0,9.666 6.5,18.092 16,20.369v0.619c0,2.756 2.245,4.998 5,4.998c2.755,0 5,-2.242 5,-4.997v-0.619c9.5,-2.278 16,-10.703 16,-20.369v-21.66zM35,53.003c0,1.653 -1.347,2.998 -3,2.998c-1.653,0 -3,-1.345 -3,-2.998v-1.999c0,-0.552 0.45,-1.004 1.001,-1.004h3.998c0.551,0 1.001,0.452 1.001,1.004zM36.924,50.341c-0.302,-1.336 -1.499,-2.341 -2.925,-2.341h-3.998c-1.426,0 -2.623,1.005 -2.925,2.341c-8.216,-2.199 -14.076,-9.718 -14.076,-18.327v-10.342c4.5,-2.16 9.5,-2.189 14,-0.041v11.382c0,2.205 2,3.998 4,3.998v1.999c0,1.653 -1.344,2.99 -2.998,2.99h-1.999c-0.551,0 -1.003,-0.439 -1.003,-0.991v-2.009h-2v2.009c0,1.654 1.35,2.991 3.003,2.991h1.999c1.64,0 3.086,-0.805 3.998,-2.03c0.912,1.224 2.357,2.03 3.998,2.03h1.999c1.653,0 3.003,-1.337 3.003,-2.991v-2.009h-2v2.009c0,0.552 -0.452,0.991 -1.003,0.991h-1.999c-1.654,0 -2.998,-1.336 -2.998,-2.99v-1.999c2,0 3.997,-2.011 3.997,-4.011h-1.999c0,1 -0.897,2 -1.999,2h-1.999c-1.101,0 -2,-0.885 -2,-1.987v-12.592l-0.533,-0.283c-4.834,-2.577 -10.467,-2.795 -15.467,-0.663v-7.775c12.5,-4.929 25.5,-4.929 38,0v7.776c-5,-2.132 -10.636,-1.915 -15.467,0.662l-0.533,0.283v4.579h2v-3.368c4.5,-2.147 9.5,-2.116 14,0.041v10.341c0,8.609 -5.86,16.128 -14.076,18.327z" fill="url(#color-3)"></path><path d="M25.004,26.017c0,-2.205 -1.793,-3.998 -3.998,-3.998c-2.205,0 -3.998,1.793 -3.998,3.998c0,2.205 1.793,3.998 3.998,3.998c2.205,0 3.998,-1.793 3.998,-3.998zM21.006,28.016c-1.102,0 -1.999,-0.897 -1.999,-1.999c0,-1.102 0.897,-1.999 1.999,-1.999c1.102,0 1.999,0.897 1.999,1.999c0,1.102 -0.897,1.999 -1.999,1.999z" fill="url(#color-4)"></path><path d="M42.994,22.019c-2.205,0 -3.998,1.793 -3.998,3.998c0,2.205 1.793,3.998 3.998,3.998c2.205,0 3.998,-1.793 3.998,-3.998c0,-2.205 -1.793,-3.998 -3.998,-3.998zM42.994,28.016c-1.102,0 -1.999,-0.897 -1.999,-1.999c0,-1.102 0.897,-1.999 1.999,-1.999c1.102,0 1.999,0.897 1.999,1.999c0,1.102 -0.897,1.999 -1.999,1.999z" fill="url(#color-5)"></path></g></g></svg>