<svg xmlns="http://www.w3.org/2000/svg"  viewBox="0 0 50 50" width="50px" height="50px" baseProfile="basic"><polygon fill="#2dea55" points="32,47 28,47 28,29 22,29 22,47 18,47 18,25 32,25"/><rect width="4" height="10" x="35" y="3" fill="#af87ce"/><polygon fill="#16d6fa" points="44,47 6,47 6,17 10,17 10,43 40,43 40,17 44,17"/><polygon fill="#ff64bd" points="47.021,23.55 25,5.581 2.979,23.55 0.449,20.45 25,0.419 49.551,20.45"/><polygon fill="#d8007c" points="35,8.578 35,13.741 39,17.005 39,11.842"/><rect width="4" height="4" x="18" y="43" fill="#00a4ff" transform="rotate(-90 20 45)"/><rect width="4" height="4" x="28" y="43" fill="#00a4ff" transform="rotate(-90 30 45)"/></svg>