<svg xmlns="http://www.w3.org/2000/svg"  viewBox="0 0 64 64" width="64px" height="64px"><linearGradient id="bJjfHpIx-efNERW-7nWVQa" x1="38.5" x2="38.5" y1="25" y2="38" gradientTransform="matrix(1 0 0 -1 0 66)" gradientUnits="userSpaceOnUse"><stop offset="0" stop-color="#ff9f70"/><stop offset="1" stop-color="#8b28b6"/></linearGradient><polygon fill="url(#bJjfHpIx-efNERW-7nWVQa)" points="41,28 21,32 28.047,34.883 38,33 38,38.6 41,35 49.8,41 56,41"/><linearGradient id="bJjfHpIx-efNERW-7nWVQb" x1="33.185" x2="33.185" y1="36.62" y2="45.76" gradientTransform="matrix(1 0 0 -1 0 66)" gradientUnits="userSpaceOnUse"><stop offset=".094" stop-color="#ff9f70"/><stop offset="1" stop-color="#8b28b6"/></linearGradient><polygon fill="url(#bJjfHpIx-efNERW-7nWVQb)" points="31.74,20.24 36.07,28.99 34.08,29.38 30.3,21.82"/><linearGradient id="bJjfHpIx-efNERW-7nWVQc" x1="45.835" x2="45.835" y1="56.801" y2="36.973" gradientTransform="matrix(1 0 0 -1 0 66)" gradientUnits="userSpaceOnUse"><stop offset="0" stop-color="#ff9f70"/><stop offset=".911" stop-color="#8b28b6"/></linearGradient><path fill="url(#bJjfHpIx-efNERW-7nWVQc)" d="M51.68,31.12l-1.62-1.54	C50.01,29.52,48.85,28,45.5,28c-2.36,0-3.41,0.48-3.72,0.67L41,28l-1.01,0.2l0.95-18.03L42,9l0.9,2.04v0.01l-0.81,15.36	C42.88,26.18,43.98,26,45.5,26c1.96,0,3.38,0.44,4.36,0.96L51.68,31.12z"/><linearGradient id="bJjfHpIx-efNERW-7nWVQd" x1="18.03" x2="18.03" y1="14" y2="28.92" gradientTransform="matrix(1 0 0 -1 0 66)" gradientUnits="userSpaceOnUse"><stop offset=".097" stop-color="#ff9f70"/><stop offset="1" stop-color="#8b28b6"/></linearGradient><path fill="url(#bJjfHpIx-efNERW-7nWVQd)" d="M21.97,50.92L21,52l-1.02-0.61	c-0.25-8.13-5.63-13.63-5.69-13.68l-0.2-0.19l2.33-0.44C17.98,38.94,21.62,43.96,21.97,50.92z"/><linearGradient id="bJjfHpIx-efNERW-7nWVQe" x1="29.5" x2="29.5" y1="14" y2="33" gradientTransform="matrix(1 0 0 -1 0 66)" gradientUnits="userSpaceOnUse"><stop offset=".089" stop-color="#ff9f70"/><stop offset="1" stop-color="#8b28b6"/></linearGradient><polygon fill="url(#bJjfHpIx-efNERW-7nWVQe)" points="31,47 38,38.6 38,33 21,52 32.361,47.99"/><linearGradient id="bJjfHpIx-efNERW-7nWVQf" x1="31" x2="63" y1="15" y2="15" gradientTransform="matrix(1 0 0 -1 0 66)" gradientUnits="userSpaceOnUse"><stop offset="0" stop-color="#ff9f70"/><stop offset="1" stop-color="#8b28b6"/></linearGradient><polygon fill="url(#bJjfHpIx-efNERW-7nWVQf)" points="63,50 42,55 31,47"/><linearGradient id="bJjfHpIx-efNERW-7nWVQg" x1="47" x2="47" y1="11" y2="19" gradientTransform="matrix(1 0 0 -1 0 66)" gradientUnits="userSpaceOnUse"><stop offset=".171" stop-color="#ff9f70"/><stop offset="1" stop-color="#8b28b6"/></linearGradient><polygon fill="url(#bJjfHpIx-efNERW-7nWVQg)" points="63,50 42,55 31,47"/><linearGradient id="bJjfHpIx-efNERW-7nWVQh" x1="40.785" x2="40.785" y1="18.769" y2="25.89" gradientTransform="matrix(1 0 0 -1 0 66)" gradientUnits="userSpaceOnUse"><stop offset=".215" stop-color="#ff9f70"/><stop offset="1" stop-color="#8b28b6"/></linearGradient><polygon fill="url(#bJjfHpIx-efNERW-7nWVQh)" points="31.011,47.001 33.466,47.231 50.57,41.53 48.5,40.11 32.22,45.54 31,47 31.01,47"/><linearGradient id="bJjfHpIx-efNERW-7nWVQi" x1="38.498" x2="38.498" y1="57.719" y2="10.675" gradientTransform="matrix(1 0 0 -1 0 66)" gradientUnits="userSpaceOnUse"><stop offset="0" stop-color="#FF5300"/><stop offset="1" stop-color="#45145A"/></linearGradient><path fill="url(#bJjfHpIx-efNERW-7nWVQi)" d="M56.906,40.604L42.916,8.599	c-0.136-0.31-0.419-0.531-0.753-0.586c-0.335-0.057-0.673,0.062-0.901,0.312l-21,23.001c-0.143,0.156-0.237,0.357-0.258,0.579	c-0.042,0.439,0.208,0.854,0.617,1.021l5.619,2.299l3.612-0.683l-5.405-2.211l16.267-3.253L53.319,40h-4.986l2.933,2H56	c0.417,0,0.791-0.259,0.937-0.65C57.03,41.101,57.008,40.837,56.906,40.604z M41.655,27.244c-0.233-0.203-0.549-0.287-0.851-0.225	l-17.008,3.402l17.905-19.61L53.31,37.345L41.655,27.244z"/><linearGradient id="bJjfHpIx-efNERW-7nWVQj" x1="19.5" x2="19.5" y1="57.719" y2="10.675" gradientTransform="matrix(1 0 0 -1 0 66)" gradientUnits="userSpaceOnUse"><stop offset="0" stop-color="#FF5300"/><stop offset="1" stop-color="#45145A"/></linearGradient><path fill="url(#bJjfHpIx-efNERW-7nWVQj)" d="M39,37.4c0,0,0-4.372-0.001-4.41	c-0.001-0.165-0.043-0.331-0.129-0.481c-0.211-0.374-0.636-0.571-1.057-0.491l-37,7c-0.408,0.077-0.726,0.398-0.798,0.807	c-0.073,0.409,0.114,0.82,0.47,1.033l20,12C20.646,52.954,20.823,53,21,53c0.104,0,0.211-0.009,0.309-0.041l12.01-4.239l-2.04-1.401	l-6.94,2.45L37,35.617V39.8L39,37.4z M20.806,50.717L3.767,40.494l31.521-5.963L20.806,50.717z"/><linearGradient id="bJjfHpIx-efNERW-7nWVQk" x1="47" x2="47" y1="57.719" y2="10.675" gradientTransform="matrix(1 0 0 -1 0 66)" gradientUnits="userSpaceOnUse"><stop offset="0" stop-color="#FF5300"/><stop offset="1" stop-color="#45145A"/></linearGradient><path fill="url(#bJjfHpIx-efNERW-7nWVQk)" d="M63.563,49.174l-22-15	c-0.427-0.291-1.003-0.21-1.332,0.186l-10,12c-0.177,0.212-0.258,0.489-0.224,0.764c0.034,0.274,0.18,0.522,0.404,0.685l11,8	C41.584,55.934,41.791,56,42,56c0.077,0,0.155-0.009,0.231-0.027l21-5c0.385-0.092,0.68-0.402,0.752-0.792	C64.055,49.792,63.891,49.397,63.563,49.174z M41.187,36.338l18.047,12.305l-26.251-2.461L41.187,36.338z M42.216,53.92	l-7.678-5.584l22.338,2.094L42.216,53.92z"/></svg>